<svg width="48" height="48" viewBox="0 0 48 48" fill="none" xmlns="http://www.w3.org/2000/svg">
<path d="M0 24C0 37.2548 10.7452 48 24 48C37.2548 48 48 37.2548 48 24C48 10.7452 37.2548 0 24 0C10.7452 0 0 10.7452 0 24Z" fill="#333333"/>
<path d="M35.9097 26.7113C35.5116 25.9496 35.1285 25.177 34.7412 24.4067C33.9866 22.9119 33.2306 21.4163 32.4731 19.92C32.4516 19.8517 32.4134 19.7898 32.3619 19.7399C32.3104 19.6901 32.2472 19.6539 32.1782 19.6347C32.1091 19.6154 32.0363 19.6138 31.9665 19.6298C31.8966 19.6458 31.8319 19.679 31.7781 19.7264C31.1325 20.1395 30.487 20.5591 29.8414 20.9723C29.7848 21.0109 29.72 21.036 29.6521 21.0455C29.0732 21.0993 28.4922 21.1488 27.9134 21.1939C27.8541 21.1943 27.7959 21.1779 27.7455 21.1466C27.3431 20.9314 26.9537 20.6926 26.5491 20.4838C26.157 20.286 25.7287 20.1703 25.2903 20.1438C24.8766 20.1247 24.462 20.1478 24.053 20.2127C23.673 20.2575 23.3086 20.3893 22.9878 20.5979C22.6392 20.8389 22.2777 21.0691 21.9119 21.2972C21.8519 21.3369 21.7815 21.3578 21.7096 21.3575C21.1286 21.3188 20.5476 21.2714 19.9666 21.2241C19.3856 21.1767 18.7809 21.1208 18.1849 21.0799C18.1328 21.0833 18.0809 21.0715 18.0354 21.0459C17.9899 21.0203 17.9529 20.982 17.9288 20.9357C17.8922 20.8818 17.8406 20.8399 17.7804 20.8152C16.9368 20.4322 16.0955 20.0513 15.2498 19.6769C15.1916 19.6462 15.1272 19.6293 15.0615 19.6273C14.9958 19.6254 14.9306 19.6385 14.8707 19.6658C14.8109 19.693 14.7581 19.7335 14.7164 19.7843C14.6747 19.8351 14.6451 19.8948 14.63 19.9588C14.6171 19.9975 14.6021 20.0341 14.5891 20.0707L12.0521 27.1977C11.9251 27.5484 12.0306 27.7787 12.3641 27.8776L14.7914 28.6093C15.1443 28.7147 15.2454 28.6846 15.4735 28.3941C15.7812 28.5748 16.0847 28.7534 16.3902 28.9277C16.4186 28.9405 16.4421 28.962 16.4572 28.9891C16.4723 29.0163 16.4783 29.0476 16.4742 29.0784C16.4621 29.3625 16.553 29.6415 16.7301 29.8641C16.9072 30.0866 17.1586 30.2378 17.4382 30.2899C17.5509 30.3052 17.6645 30.3139 17.7782 30.3157C17.8643 30.6479 18.0736 30.9348 18.3635 31.1183C18.6569 31.3063 19.0127 31.3705 19.3533 31.297C19.4638 31.6207 19.6897 31.8925 19.9877 32.0603C20.2858 32.2282 20.6352 32.2805 20.9694 32.2072C20.9823 32.2309 20.9909 32.2416 20.9974 32.2524C21.0655 32.4217 21.1719 32.573 21.3082 32.6944C21.4445 32.8157 21.6071 32.9039 21.7832 32.9521C21.9593 33.0002 22.1441 33.007 22.3232 32.9718C22.5023 32.9367 22.6708 32.8606 22.8157 32.7495C22.837 32.7399 22.8601 32.735 22.8834 32.735C22.9068 32.735 22.9299 32.7399 22.9512 32.7495C23.0588 32.7968 23.1664 32.8635 23.2654 32.9109C23.8292 33.1734 24.4166 33.3176 25.0299 33.126C25.2995 33.0266 25.562 32.9087 25.8153 32.7731C25.989 32.8817 26.184 32.9517 26.387 32.9784C26.5901 33.0052 26.7965 32.988 26.9924 32.9281C27.1942 32.8599 27.3772 32.7453 27.5267 32.5936C27.6762 32.4419 27.7879 32.2572 27.8531 32.0544C28.3007 32.2696 28.7419 32.3148 29.1765 32.0436C29.3787 31.9283 29.5477 31.7627 29.6672 31.5629C29.7867 31.3631 29.8526 31.1359 29.8587 30.9032C30.091 30.9446 30.3304 30.9183 30.5482 30.8275C30.7661 30.7367 30.9532 30.5852 31.0874 30.391C31.3951 29.9606 31.3628 29.5131 31.1519 29.0526L32.3462 28.1918L32.542 28.4543C32.5701 28.5094 32.6098 28.5577 32.6582 28.5961C32.7067 28.6344 32.7629 28.6618 32.8229 28.6765C32.8829 28.6912 32.9454 28.6928 33.0061 28.6812C33.0668 28.6696 33.1243 28.6451 33.1746 28.6093C33.9966 28.2241 34.8165 27.8346 35.6429 27.4602C35.7182 27.4397 35.7875 27.4013 35.8448 27.3482C35.9021 27.2952 35.9457 27.229 35.9719 27.1555C35.9981 27.0819 36.0062 27.0031 35.9953 26.9258C35.9845 26.8484 35.9551 26.7749 35.9097 26.7113ZM15.777 25.8979C15.6715 26.1325 15.5618 26.3649 15.4456 26.5951C15.3832 26.7242 15.3165 26.8512 15.2519 26.9803C15.1243 27.2299 14.993 27.4774 14.8581 27.7227L12.9817 27.1589L13.5627 25.53C14.1437 23.9032 14.7226 22.2785 15.3057 20.6409L17.1391 21.4629C17.0975 21.7427 17.048 22.0203 16.9906 22.2957C16.9626 22.4334 16.9304 22.569 16.8981 22.7046C16.8658 22.8401 16.8314 22.9757 16.7948 23.1113C16.7582 23.2468 16.7216 23.3781 16.6829 23.5115C16.6442 23.6449 16.6011 23.7783 16.5581 23.9096C16.4849 24.142 16.4053 24.3701 16.3192 24.5982C16.3042 24.6348 16.2912 24.6692 16.2805 24.7036C16.1836 24.9597 16.0804 25.2136 15.9706 25.4675C15.9233 25.5794 15.8738 25.6827 15.8222 25.8075L15.777 25.8979ZM18.3011 28.7255C18.3011 28.7448 18.2817 28.7728 18.2688 28.7986C18.2622 28.813 18.2543 28.8267 18.2451 28.8395C18.1505 28.9902 18.0471 29.1365 17.946 29.2828C17.8976 29.3556 17.8231 29.4071 17.7379 29.4268C17.6526 29.4464 17.5631 29.4326 17.4877 29.3883C17.4633 29.3733 17.4414 29.3543 17.4231 29.3323L17.3952 29.3C17.3839 29.2851 17.3738 29.2692 17.365 29.2527C17.3584 29.2373 17.3526 29.2214 17.3478 29.2053C17.3415 29.1887 17.3372 29.1714 17.3349 29.1537C17.3338 29.1365 17.3338 29.1192 17.3349 29.102C17.3343 29.0404 17.3515 28.9799 17.3844 28.9277C17.4898 28.7599 17.5996 28.5964 17.7287 28.4371C17.7736 28.3831 17.8346 28.3449 17.9028 28.3283C17.971 28.3116 18.0427 28.3173 18.1074 28.3446C18.1756 28.3742 18.2329 28.4243 18.2715 28.4879C18.31 28.5515 18.3278 28.6255 18.3226 28.6997L18.3011 28.7255ZM19.9494 29.4743C19.7751 29.7498 19.59 30.0187 19.4114 30.2899C19.3409 30.3739 19.2424 30.4296 19.134 30.4466C19.0256 30.4636 18.9147 30.4408 18.8218 30.3824C18.7681 30.3511 18.7215 30.309 18.685 30.2588C18.6485 30.2085 18.6228 30.1512 18.6097 30.0904C18.5965 30.0297 18.5962 29.9669 18.6086 29.906C18.6211 29.8452 18.646 29.7875 18.682 29.7369C18.8347 29.5044 18.9918 29.2742 19.1511 29.0461C19.1897 28.9791 19.2456 28.9238 19.313 28.886C19.3804 28.8481 19.4568 28.8291 19.5341 28.8309C19.6506 28.8282 19.7638 28.8698 19.8508 28.9473C19.9379 29.0247 19.9923 29.1323 20.0032 29.2484C20.0107 29.3289 19.9919 29.4098 19.9494 29.4786V29.4743ZM21.0748 31.142C21.0254 31.2096 20.9606 31.2644 20.8857 31.3018C20.8109 31.3392 20.7281 31.3582 20.6444 31.3572C20.5535 31.3542 20.4651 31.3261 20.3892 31.276C20.3132 31.2258 20.2526 31.1556 20.2141 31.0732C20.1745 30.9983 20.1579 30.9135 20.1664 30.8293C20.1748 30.7451 20.2078 30.6653 20.2614 30.5998C20.4766 30.3049 20.6595 29.9951 20.8575 29.6938C20.8923 29.635 20.9387 29.5838 20.9939 29.5435C21.0492 29.5031 21.112 29.4745 21.1787 29.4593C21.2454 29.444 21.3144 29.4425 21.3817 29.4549C21.449 29.4672 21.513 29.4931 21.5699 29.531C21.6269 29.5689 21.6755 29.618 21.7128 29.6753C21.7501 29.7326 21.7754 29.7969 21.787 29.8643C21.7987 29.9317 21.7965 30.0007 21.7806 30.0672C21.7647 30.1337 21.7354 30.1963 21.6946 30.2511C21.488 30.5567 21.2814 30.8551 21.0748 31.1463V31.142ZM22.8953 31.2087C22.8264 31.3249 22.7468 31.4239 22.6694 31.5423C22.648 31.5688 22.6196 31.5889 22.5876 31.6004C22.4779 31.6218 22.3802 31.6832 22.3134 31.7727C22.2465 31.8622 22.2154 31.9733 22.2261 32.0845C22.1613 32.1163 22.0875 32.1247 22.0173 32.1082C21.9471 32.0917 21.8847 32.0514 21.8409 31.9942C21.7915 31.9406 21.7633 31.871 21.7613 31.7982C21.7593 31.7254 21.7837 31.6544 21.8301 31.5982C22.0001 31.3464 22.1723 31.0968 22.3487 30.8472C22.3972 30.7765 22.4715 30.7277 22.5556 30.7112C22.6397 30.6947 22.7269 30.7118 22.7984 30.759C22.87 30.8076 22.92 30.882 22.938 30.9666C22.9561 31.0512 22.9407 31.1394 22.8953 31.213V31.2087ZM23.4139 31.9834C23.4505 31.9339 23.4806 31.8866 23.5107 31.8435C23.5408 31.8005 23.5667 31.7596 23.5903 31.723C23.6239 31.6727 23.6541 31.6202 23.6807 31.5659C23.7042 31.5206 23.725 31.4738 23.7431 31.4261C23.7664 31.3656 23.783 31.3029 23.7926 31.2388C23.7926 31.2066 23.8055 31.1743 23.8098 31.1377L24.4382 31.6628L25.0622 32.1835C24.6038 32.4912 23.8098 32.2825 23.4139 31.9877V31.9834ZM30.3859 29.8961C30.334 29.9627 30.2618 30.0105 30.1802 30.0322C30.0986 30.054 30.0122 30.0485 29.934 30.0166C29.7193 29.9505 29.5177 29.8479 29.3379 29.7132C28.092 28.6588 26.859 27.5871 25.6217 26.522C25.5802 26.4771 25.5297 26.4416 25.4735 26.4177C25.4172 26.3939 25.3566 26.3823 25.2955 26.3837C25.2344 26.3852 25.1744 26.3996 25.1193 26.426C25.0642 26.4524 25.0154 26.4903 24.9761 26.537C24.9367 26.5822 24.9071 26.6351 24.8893 26.6924C24.8715 26.7496 24.8659 26.81 24.8728 26.8695C24.8797 26.9291 24.8989 26.9866 24.9293 27.0382C24.9597 27.0899 25.0006 27.1347 25.0493 27.1697C26.2543 28.2112 27.4622 29.2512 28.673 30.2899C28.7768 30.3582 28.8609 30.4526 28.9168 30.5637C28.9726 30.6747 28.9984 30.7984 28.9915 30.9225C28.9862 30.9951 28.9638 31.0654 28.9259 31.1276C28.8881 31.1898 28.8361 31.2421 28.774 31.2802C28.712 31.3182 28.6418 31.341 28.5692 31.3465C28.4966 31.352 28.4238 31.3402 28.3567 31.312C28.1233 31.1978 27.9063 31.0531 27.7111 30.8816C26.4566 29.8057 25.2107 28.7298 23.9605 27.6538C23.9189 27.6118 23.8691 27.5787 23.8143 27.5567C23.7594 27.5347 23.7005 27.5242 23.6414 27.526C23.5823 27.5277 23.5242 27.5416 23.4707 27.5668C23.4172 27.5921 23.3695 27.628 23.3305 27.6725C23.2915 27.7169 23.2622 27.769 23.2442 27.8253C23.2262 27.8816 23.22 27.941 23.226 27.9999C23.232 28.0587 23.2501 28.1157 23.2791 28.1672C23.3081 28.2187 23.3473 28.2637 23.3945 28.2994C24.4984 29.2548 25.6045 30.2059 26.7019 31.1678C26.814 31.2693 26.9034 31.3932 26.9644 31.5315C26.9942 31.5983 27.0056 31.6719 26.9974 31.7446C26.9893 31.8174 26.9618 31.8866 26.9179 31.9451C26.8741 32.0037 26.8154 32.0495 26.7479 32.0778C26.6804 32.1061 26.6066 32.1158 26.5341 32.1061C26.3548 32.0866 26.1862 32.0113 26.0521 31.8909C25.4818 31.4196 24.9137 30.944 24.3456 30.4706L24.2359 30.3781C24.195 30.3336 24.1455 30.298 24.0904 30.2732C24.0353 30.2485 23.9758 30.2352 23.9154 30.2342C23.855 30.2332 23.7951 30.2445 23.7392 30.2674C23.6833 30.2903 23.6327 30.3243 23.5903 30.3673C23.4876 30.2163 23.3523 30.0901 23.1944 29.9982C23.0365 29.9062 22.8601 29.8507 22.678 29.8358C22.6598 29.8298 22.6435 29.8194 22.6303 29.8055C22.6172 29.7916 22.6077 29.7747 22.6026 29.7562C22.5604 29.4408 22.4073 29.1507 22.1707 28.9378C21.9342 28.7249 21.6296 28.6031 21.3115 28.5942C21.23 28.6526 21.1359 28.6908 21.0368 28.7057C20.9376 28.7207 20.8364 28.7119 20.7413 28.6803C20.6462 28.6486 20.56 28.5948 20.4897 28.5234C20.4193 28.4519 20.3669 28.3649 20.3367 28.2693C20.1691 28.1297 19.968 28.0365 19.7532 27.9987C19.5384 27.961 19.3175 27.9801 19.1123 28.0541C19.0975 28.0614 19.0814 28.0657 19.0649 28.0667C19.0484 28.0678 19.0319 28.0655 19.0163 28.0601C19.0006 28.0547 18.9863 28.0463 18.974 28.0352C18.9616 28.0242 18.9516 28.0109 18.9445 27.996C18.8358 27.8317 18.6881 27.697 18.5146 27.6038C18.3412 27.5105 18.1473 27.4618 17.9503 27.4618C17.7534 27.4618 17.5595 27.5105 17.386 27.6038C17.2125 27.697 17.0649 27.8317 16.9562 27.996C16.9153 28.0562 16.8722 28.1165 16.8227 28.1918L15.8716 27.6409C16.3496 26.7467 16.7673 25.8215 17.1219 24.8715C17.4784 23.9188 17.7443 22.9346 17.9159 21.932L20.9651 22.1709C20.879 22.5044 20.78 22.8294 20.7176 23.1608C20.6874 23.3215 20.6128 23.4705 20.5024 23.5911C20.2728 23.8501 20.1167 24.1659 20.0505 24.5057C20.0103 24.6719 20.0075 24.845 20.0421 25.0124C20.0768 25.1799 20.1481 25.3376 20.2509 25.4743C20.3538 25.6109 20.4857 25.723 20.6371 25.8026C20.7885 25.8822 20.9556 25.9272 21.1264 25.9345C21.5032 25.9728 21.8835 25.9138 22.2308 25.7631C22.5782 25.6124 22.8811 25.3751 23.1104 25.0738C23.3256 24.8069 23.5021 24.4992 23.7022 24.213C23.7391 24.1587 23.7928 24.1178 23.855 24.0968C23.956 24.0716 24.0589 24.0551 24.1627 24.0473C24.2769 24.0336 24.3927 24.0458 24.5015 24.083C24.6103 24.1203 24.7093 24.1817 24.791 24.2625C26.0004 25.3686 27.2184 26.4639 28.4277 27.5699C29.0109 28.1014 29.5854 28.6459 30.1599 29.1795C30.238 29.2549 30.3066 29.3394 30.3644 29.4313C30.4169 29.4972 30.4473 29.5781 30.4512 29.6624C30.455 29.7466 30.4321 29.8299 30.3859 29.9004V29.8961ZM30.601 28.3747L29.9856 27.8088L25.697 23.8816C25.542 23.7418 25.3785 23.6105 25.2193 23.4771C25.0627 23.3509 24.8816 23.2587 24.6875 23.2065C24.4933 23.1543 24.2904 23.1431 24.0917 23.1737C23.8513 23.2074 23.6133 23.257 23.3794 23.3221C23.3077 23.3409 23.2414 23.3761 23.1857 23.4251C23.1301 23.474 23.0866 23.5353 23.0588 23.604C22.8688 24.0175 22.6015 24.3907 22.2712 24.7036C22.1336 24.8367 21.9676 24.937 21.7858 24.997C21.604 25.057 21.411 25.0751 21.2212 25.0501C21.1706 25.0531 21.12 25.0433 21.0742 25.0217C21.0283 25.0002 20.9886 24.9674 20.9586 24.9266C20.9287 24.8857 20.9095 24.838 20.9027 24.7878C20.8959 24.7375 20.9018 24.6864 20.9199 24.6391C20.9773 24.3847 21.1191 24.1571 21.3223 23.9935C21.45 23.8703 21.5268 23.7037 21.5375 23.5266C21.5741 23.2877 21.6257 23.0489 21.6795 22.81C21.7739 22.5121 21.9808 22.2628 22.2562 22.115C22.6973 21.8158 23.1342 21.5146 23.5925 21.2542C23.8028 21.1529 24.0293 21.0895 24.2617 21.067C24.6679 20.9899 25.0845 20.9848 25.4925 21.0519C25.8907 21.1419 26.2715 21.2959 26.6201 21.5081C26.8762 21.6458 27.1215 21.8072 27.3625 21.9686C27.4714 22.0498 27.6057 22.0895 27.7412 22.0805L29.2863 21.9557C29.3595 21.9557 29.4326 21.9557 29.5165 21.9557C29.7641 22.9292 30.0857 23.8824 30.4784 24.8069C30.867 25.7319 31.3305 26.6236 31.8642 27.4731L30.601 28.3747ZM33.9579 27.2708C33.6997 27.3935 33.4372 27.5118 33.1789 27.6388C33.0993 27.6775 33.0585 27.6711 33.0025 27.5914C32.1451 26.3515 31.4555 25.0035 30.9518 23.5825C30.7366 22.9821 30.5645 22.3646 30.3794 21.7556C30.3737 21.7332 30.3735 21.7098 30.3788 21.6874C30.384 21.6649 30.3946 21.644 30.4095 21.6265C30.8959 21.308 31.3865 20.996 31.8878 20.6732L34.9822 26.7888L33.9579 27.2708Z" fill="#A88B5B"/>
<path d="M23.2354 18.1812C23.2432 18.2887 23.2104 18.3952 23.1434 18.4797C23.0765 18.5641 22.9803 18.6204 22.8739 18.6374C22.7698 18.6586 22.6616 18.6383 22.5724 18.5808C22.4831 18.5233 22.4199 18.4332 22.3962 18.3297C22.323 17.9811 22.2713 17.6281 22.2132 17.2752C22.0841 16.4948 21.9557 15.7137 21.8281 14.9319C21.8044 14.7855 21.7786 14.6392 21.7614 14.5015C21.7529 14.4439 21.7563 14.3852 21.7712 14.329C21.786 14.2728 21.8122 14.2201 21.848 14.1743C21.8838 14.1284 21.9285 14.0903 21.9795 14.0622C22.0304 14.0341 22.0865 14.0166 22.1444 14.0109C22.2513 14.0017 22.3578 14.0328 22.443 14.0981C22.5282 14.1633 22.586 14.2581 22.6049 14.3638C22.7125 14.9907 22.8165 15.6176 22.9169 16.2445C23.0173 16.8714 23.1192 17.489 23.2224 18.0972C23.2267 18.1231 23.2332 18.1618 23.2354 18.1812Z" fill="#A88B5B"/>
<path d="M26.5792 14.4929C26.5146 14.962 26.4522 15.4548 26.3834 15.9454C26.2758 16.7187 26.166 17.4905 26.0541 18.2609C26.0469 18.317 26.0288 18.3711 26.0006 18.4202C25.9725 18.4693 25.935 18.5123 25.8903 18.5469C25.8455 18.5815 25.7943 18.6069 25.7397 18.6217C25.6852 18.6365 25.6282 18.6404 25.5721 18.6331C25.5175 18.6281 25.4644 18.6121 25.4161 18.5861C25.3678 18.5601 25.3253 18.5247 25.2909 18.482C25.2566 18.4392 25.2313 18.39 25.2163 18.3372C25.2014 18.2844 25.1973 18.2292 25.2041 18.1748C25.2429 17.7982 25.301 17.4216 25.3526 17.0472C25.471 16.1865 25.5936 15.3386 25.7076 14.4843C25.7065 14.388 25.7336 14.2935 25.7856 14.2124C25.8376 14.1313 25.9123 14.0673 26.0003 14.0281C26.0704 14.0015 26.1463 13.9936 26.2204 14.0053C26.2946 14.017 26.3643 14.0478 26.4228 14.0948C26.4813 14.1418 26.5265 14.2032 26.5539 14.2731C26.5814 14.3429 26.5901 14.4187 26.5792 14.4929Z" fill="#A88B5B"/>
<path d="M30.1986 16.3264C30.1729 16.4126 30.1391 16.4962 30.0975 16.576C29.6154 17.3335 29.132 18.0895 28.6471 18.8441C28.6051 18.9266 28.5376 18.9933 28.4546 19.0344C28.3717 19.0755 28.2777 19.0887 28.1866 19.0722C28.0988 19.0628 28.0167 19.0242 27.9534 18.9625C27.8902 18.9009 27.8496 18.8197 27.838 18.7322C27.8231 18.6253 27.8435 18.5165 27.8961 18.4223C28.3803 17.6476 28.8752 16.8794 29.3723 16.1091C29.4206 16.0226 29.4974 15.9554 29.5895 15.919C29.6816 15.8825 29.7835 15.879 29.878 15.9089C29.9673 15.9379 30.0458 15.9934 30.103 16.0679C30.1603 16.1424 30.1936 16.2326 30.1986 16.3264Z" fill="#A88B5B"/>
<path d="M19.945 19.0785C19.8837 19.0737 19.8242 19.055 19.7713 19.0236C19.7183 18.9923 19.6732 18.9492 19.6395 18.8977C19.1919 18.2522 18.7465 17.5959 18.3054 16.9417C18.2459 16.8473 18.2255 16.7334 18.2484 16.6243C18.2713 16.5151 18.3357 16.419 18.428 16.3564C18.4734 16.3238 18.5248 16.3006 18.5793 16.2885C18.6338 16.2763 18.6903 16.2753 18.7452 16.2856C18.8001 16.2958 18.8524 16.3171 18.8988 16.3482C18.9453 16.3792 18.985 16.4193 19.0155 16.4661C19.3232 16.8965 19.6244 17.3505 19.9279 17.7917C20.0699 18.0069 20.2141 18.2091 20.3582 18.42C20.4026 18.4823 20.4278 18.5562 20.4309 18.6326C20.4339 18.7091 20.4146 18.7847 20.3754 18.8504C20.3327 18.9254 20.2696 18.9866 20.1934 19.027C20.1172 19.0674 20.031 19.0853 19.945 19.0785Z" fill="#A88B5B"/>
<path d="M14.8561 27.7228L12.9797 27.159C13.7523 24.9856 14.5248 22.823 15.3016 20.641L17.135 21.463C16.8057 23.7074 15.9428 25.7517 14.8561 27.7228Z" fill="#A88B5B"/>
</svg>
