<svg width="48" height="48" viewBox="0 0 48 48" fill="none" xmlns="http://www.w3.org/2000/svg">
<path d="M0 24C0 37.2548 10.7452 48 24 48C37.2548 48 48 37.2548 48 24C48 10.7452 37.2548 0 24 0C10.7452 0 0 10.7452 0 24Z" fill="#333333"/>
<path d="M26.3279 26.9829L23.8165 24.7191L23.9363 24.4155C25.449 24.5647 27.0656 24.4342 28.4425 24.9482C29.8194 25.4622 30.8954 26.6074 32.1711 27.5209C32.2456 27.5209 32.5013 27.4943 32.7543 27.449C33.6194 27.3035 34.5073 27.3796 35.335 27.6701C35.9156 27.8645 36.134 28.0722 35.9183 28.7354C35.4256 30.2747 35.0021 31.8354 34.5866 33.3988C34.4561 33.8835 34.2804 33.9607 33.7877 33.8488C32.7093 33.6162 31.7038 33.1244 30.8581 32.416C30.7075 32.326 30.532 32.2867 30.3574 32.3041C28.7355 32.3254 27.4278 31.7475 26.4531 30.4052C26.2168 30.1056 25.9324 29.8473 25.6115 29.6409C24.7726 29.0683 23.9123 28.5223 23.0574 27.9737C22.4902 27.6114 22.2584 27.1028 22.57 26.5035C22.8817 25.9043 23.4809 25.8857 24.0641 26.1733C24.7672 26.5195 25.465 26.8711 26.1628 27.22L26.3279 26.9829ZM31.9207 32.7063C32.3895 31.0204 32.8156 29.4811 33.2524 27.8938L32.4534 27.6913L31.0871 32.3574L31.9207 32.7063Z" fill="#A88B5B"/>
<path d="M21.6754 23.3874L25.0657 26.0827L24.9512 26.317C24.0297 25.8296 23.1056 25.2091 22.1601 26.4955L20.8684 24.3089C17.59 26.5514 14.4766 25.2517 13.0358 23.2836C12.2625 22.2254 11.9022 20.9211 12.0228 19.616C12.1434 18.3109 12.7365 17.0948 13.6907 16.1962C14.6449 15.2977 15.8944 14.7785 17.2044 14.7364C18.5143 14.6943 19.7946 15.1321 20.8045 15.9675C22.6874 17.5282 23.6595 20.5324 21.6754 23.3874ZM13.0038 20.0716C12.9719 22.4686 14.9134 24.4954 17.2464 24.5273C17.8249 24.5389 18.4 24.4363 18.9388 24.2256C19.4777 24.0149 19.9698 23.7001 20.387 23.2992C20.8042 22.8984 21.1383 22.4192 21.3704 21.8892C21.6024 21.3592 21.7278 20.7886 21.7393 20.2101C21.7509 19.6317 21.6483 19.0566 21.4376 18.5177C21.2269 17.9788 20.9121 17.4868 20.5113 17.0695C20.1104 16.6523 19.6312 16.3182 19.1012 16.0861C18.5712 15.8541 18.0007 15.7287 17.4222 15.7172C16.8454 15.7077 16.2724 15.813 15.7368 16.0272C15.2011 16.2413 14.7135 16.56 14.3022 16.9645C13.8909 17.3691 13.5643 17.8515 13.3414 18.3836C13.1185 18.9156 13.0038 19.4868 13.0038 20.0637V20.0716Z" fill="#A88B5B"/>
<path d="M26.7489 31.2654C25.9499 31.7315 25.6702 31.1616 25.3613 30.6875C24.296 31.0098 24.011 30.8154 23.8832 29.6994C22.8658 29.7341 22.6634 29.5556 22.6368 28.7247C22.2133 28.5462 21.5582 28.4184 21.5395 28.2346C21.5275 27.6356 21.6687 27.0434 21.9497 26.5142C21.9949 27.6008 22.7247 28.0429 23.4597 28.5489C24.6156 29.3452 26.0244 29.8486 26.7489 31.2654Z" fill="#A88B5B"/>
<path d="M17.3847 16.5721C18.6471 16.7133 19.5553 17.1714 20.1811 18.0902C20.2903 18.25 20.2344 18.5243 20.253 18.7454C20.0533 18.6602 19.7763 18.6335 19.6618 18.4791C19.4023 18.1409 19.0777 17.858 18.7072 17.6472C18.3368 17.4363 17.9278 17.3017 17.5045 17.2513C17.2804 17.1719 17.0701 17.0578 16.8813 16.9131L17.3847 16.5721Z" fill="#A88B5B"/>
</svg>
