<svg width="48" height="48" viewBox="0 0 48 48" fill="none" xmlns="http://www.w3.org/2000/svg">
<path d="M0 24C0 37.2548 10.7452 48 24 48C37.2548 48 48 37.2548 48 24C48 10.7452 37.2548 0 24 0C10.7452 0 0 10.7452 0 24Z" fill="#333333"/>
<path d="M17.92 32V29.72L23.392 23.888C23.888 23.36 24.28 22.872 24.568 22.424C24.872 21.976 25.096 21.544 25.24 21.128C25.384 20.712 25.456 20.296 25.456 19.88C25.456 19.08 25.2 18.472 24.688 18.056C24.192 17.64 23.464 17.432 22.504 17.432C21.752 17.432 21.016 17.576 20.296 17.864C19.592 18.136 18.912 18.568 18.256 19.16L17.224 16.856C17.896 16.248 18.736 15.76 19.744 15.392C20.752 15.024 21.8 14.84 22.888 14.84C24.104 14.84 25.128 15.024 25.96 15.392C26.792 15.76 27.424 16.296 27.856 17C28.288 17.704 28.504 18.56 28.504 19.568C28.504 20.08 28.44 20.584 28.312 21.08C28.2 21.56 28.016 22.04 27.76 22.52C27.52 23 27.208 23.496 26.824 24.008C26.456 24.504 26.008 25.024 25.48 25.568L20.968 30.272V29.456H29.152V32H17.92Z" fill="#A88B5B"/>
</svg>
