<svg width="48" height="48" viewBox="0 0 48 48" fill="none" xmlns="http://www.w3.org/2000/svg">
<path d="M0 24C0 37.2548 10.7452 48 24 48C37.2548 48 48 37.2548 48 24C48 10.7452 37.2548 0 24 0C10.7452 0 0 10.7452 0 24Z" fill="#333333"/>
<path d="M32.4347 12H21.4527C21.3892 12 21.3256 12 21.252 12V12.1974C21.252 13.6224 21.252 15.0485 21.252 16.4758C21.252 16.8738 21.1283 16.9976 20.7268 16.9976H15V34.9141C15 35.2486 15.1438 35.3891 15.485 35.3891H32.438C32.8862 35.3891 33 35.272 33 34.8271C33 27.3987 33 19.9681 33 12.5352C32.99 12.1137 32.8796 12 32.4347 12ZM27.3769 31.2779C27.3587 31.3608 27.3139 31.4355 27.2492 31.4905C27.1846 31.5455 27.1037 31.5777 27.0189 31.5823C26.8885 31.5823 26.7547 31.5823 26.6242 31.5823H19.1847C19.0775 31.5852 18.9711 31.5634 18.8737 31.5188C18.807 31.4875 18.7526 31.4352 18.7187 31.3699C18.6849 31.3046 18.6735 31.23 18.6863 31.1575C18.688 31.0821 18.7135 31.0091 18.7592 30.949C18.8048 30.889 18.8683 30.8449 18.9405 30.823C19.0259 30.7958 19.1153 30.7834 19.2048 30.7862H26.8818C26.9973 30.7824 27.1121 30.8065 27.2163 30.8565C27.2865 30.8985 27.3405 30.9629 27.3696 31.0394C27.3987 31.1158 27.4013 31.1999 27.3769 31.2779ZM28.9457 28.8862C28.8567 28.8946 28.7671 28.8946 28.6781 28.8862H19.2216C18.887 28.8862 18.6796 28.739 18.6863 28.4781C18.693 28.2172 18.8737 28.0834 19.2216 28.0834H28.7484C29.0829 28.0834 29.2501 28.2105 29.2635 28.458C29.2789 28.556 29.2548 28.6561 29.1965 28.7364C29.1382 28.8167 29.0504 28.8705 28.9524 28.8862H28.9457ZM28.9089 26.2101C28.832 26.2101 28.7517 26.2101 28.6747 26.2101H19.0944C19.0402 26.2105 18.9866 26.2002 18.9365 26.1797C18.8863 26.1592 18.8407 26.1289 18.8024 26.0906C18.7641 26.0523 18.7339 26.0067 18.7133 25.9566C18.6928 25.9065 18.6825 25.8528 18.683 25.7986C18.6873 25.6927 18.7334 25.5929 18.8111 25.5208C18.8888 25.4487 18.9918 25.4103 19.0977 25.4139H28.7985C29.0695 25.4139 29.2401 25.5444 29.2569 25.7484C29.2669 25.8016 29.2658 25.8562 29.2538 25.909C29.2418 25.9617 29.2191 26.0114 29.1871 26.055C29.1551 26.0986 29.1145 26.1351 29.0678 26.1624C29.0211 26.1897 28.9693 26.207 28.9156 26.2134L28.9089 26.2101ZM28.9089 23.534C28.8488 23.5373 28.7885 23.5373 28.7283 23.534H19.1479C18.8435 23.534 18.6495 23.3299 18.6997 23.0657C18.713 22.9777 18.7555 22.8969 18.8205 22.8362C18.8854 22.7755 18.9689 22.7385 19.0576 22.7312C19.1166 22.7278 19.1758 22.7278 19.2349 22.7312H28.745C28.8174 22.7244 28.8901 22.7244 28.9624 22.7312C29.0536 22.7531 29.1341 22.8065 29.1897 22.882C29.2454 22.9574 29.2726 23.0501 29.2666 23.1436C29.2606 23.2372 29.2217 23.3256 29.1569 23.3934C29.0921 23.4611 29.0055 23.5038 28.9123 23.5139L28.9089 23.534ZM29.1364 20.7408C29.0199 20.8099 28.8872 20.8468 28.7517 20.8479C27.5442 20.8479 26.3332 20.8479 25.1223 20.8479H21.0446C20.7569 20.8479 20.5662 20.6906 20.5662 20.4531C20.5681 20.3944 20.5822 20.3367 20.6077 20.2837C20.6332 20.2308 20.6695 20.1837 20.7142 20.1456C20.7589 20.1075 20.8111 20.0791 20.8674 20.0624C20.9237 20.0456 20.983 20.0409 21.0413 20.0484H28.7885C28.8808 20.0353 28.9749 20.0527 29.0564 20.098C29.1379 20.1433 29.2024 20.214 29.2401 20.2992C29.278 20.3707 29.2886 20.4534 29.2702 20.5321C29.2517 20.6109 29.2054 20.6802 29.1397 20.7274L29.1364 20.7408Z" fill="#A88B5B"/>
<path d="M15.2676 16.2048L20.4357 12.2174V16.2048H15.2676Z" fill="#A88B5B"/>
</svg>
