<svg width="48" height="48" viewBox="0 0 48 48" fill="none" xmlns="http://www.w3.org/2000/svg">
<path d="M0 24C0 37.2548 10.7452 48 24 48C37.2548 48 48 37.2548 48 24C48 10.7452 37.2548 0 24 0C10.7452 0 0 10.7452 0 24Z" fill="#333333"/>
<path d="M22.864 32.24C22.096 32.24 21.344 32.16 20.608 32C19.888 31.856 19.216 31.64 18.592 31.352C17.968 31.064 17.424 30.72 16.96 30.32L17.968 27.968C18.72 28.544 19.488 28.968 20.272 29.24C21.056 29.512 21.888 29.648 22.768 29.648C23.472 29.648 24.064 29.552 24.544 29.36C25.024 29.168 25.384 28.88 25.624 28.496C25.88 28.112 26.008 27.648 26.008 27.104C26.008 26.304 25.736 25.712 25.192 25.328C24.664 24.928 23.888 24.728 22.864 24.728H20.152V22.184H22.576C23.184 22.184 23.704 22.088 24.136 21.896C24.568 21.688 24.904 21.4 25.144 21.032C25.384 20.664 25.504 20.216 25.504 19.688C25.504 18.952 25.256 18.392 24.76 18.008C24.28 17.624 23.576 17.432 22.648 17.432C21.816 17.432 21.04 17.576 20.32 17.864C19.6 18.136 18.912 18.568 18.256 19.16L17.248 16.856C17.92 16.216 18.76 15.72 19.768 15.368C20.776 15.016 21.824 14.84 22.912 14.84C24.08 14.84 25.08 15.024 25.912 15.392C26.744 15.744 27.376 16.256 27.808 16.928C28.256 17.584 28.48 18.384 28.48 19.328C28.48 20.336 28.2 21.208 27.64 21.944C27.08 22.664 26.312 23.144 25.336 23.384V23.096C26.104 23.224 26.76 23.48 27.304 23.864C27.848 24.248 28.264 24.736 28.552 25.328C28.84 25.92 28.984 26.6 28.984 27.368C28.984 28.36 28.736 29.224 28.24 29.96C27.744 30.696 27.04 31.264 26.128 31.664C25.216 32.048 24.128 32.24 22.864 32.24Z" fill="#A88B5B"/>
</svg>
