<svg width="48" height="48" viewBox="0 0 48 48" fill="none" xmlns="http://www.w3.org/2000/svg">
<path d="M0 24C0 37.2548 10.7452 48 24 48C37.2548 48 48 37.2548 48 24C48 10.7452 37.2548 0 24 0C10.7452 0 0 10.7452 0 24Z" fill="#333333"/>
<path d="M12 20.1316C12.0627 19.8505 12.1104 19.5645 12.1882 19.2885C12.4544 18.3627 12.9507 17.5194 13.6308 16.8372C15.0283 15.3996 16.7696 14.6193 18.7065 14.2304C19.8017 14.0096 20.9229 13.947 22.0359 14.0447C24.2463 14.2404 26.2811 14.9128 27.9772 16.3906C29.2994 17.5423 30.1098 18.9749 30.0697 20.7789C30.035 21.903 29.6322 22.9845 28.9231 23.8574C27.954 25.0696 26.6652 25.9865 25.2023 26.5044C23.7488 27.061 22.1955 27.3097 20.6409 27.2345C19.9961 27.2069 19.3588 27.074 18.7165 27.0037C18.5838 26.9886 18.4497 27.0177 18.3352 27.0865C16.8674 28.0901 15.4072 29.0937 13.9445 30.1149C13.8703 30.1708 13.7846 30.2094 13.6936 30.2278L15.8764 26.0729C15.5 25.837 15.1237 25.6212 14.7799 25.3753C13.6613 24.6429 12.8012 23.5774 12.3212 22.3294C12.1974 21.9302 12.0944 21.5249 12.0126 21.1151L12 20.1316ZM25.8747 21.3384V19.4466H24.013V21.3384H25.8747ZM18.1696 21.3384V19.4491H16.3179V21.3334L18.1696 21.3384ZM22.0259 19.4541H20.1617V21.3359H22.0259V19.4541Z" fill="#A88B5B"/>
<path d="M31.4292 19.2458C33.3762 20.0813 34.9844 21.2079 35.712 23.2427C36.3092 24.9137 35.9479 26.4492 34.8941 27.8417C34.2815 28.626 33.5125 29.2745 32.636 29.746L32.3299 29.9191L34.4375 33.9335L34.1866 33.7805C32.7941 32.8195 31.4016 31.8561 30.0041 30.9027C29.8989 30.8338 29.7726 30.8045 29.6478 30.8199C28.5923 31.0394 27.5102 31.1019 26.4364 31.0055C24.3715 30.8048 22.4822 30.165 20.889 28.7851C20.8529 28.7553 20.8186 28.7234 20.7861 28.6897C20.7861 28.6897 20.7861 28.6646 20.7861 28.6471C21.2679 28.622 21.7471 28.6145 22.2263 28.5718C24.4844 28.3686 26.5944 27.7037 28.4461 26.3639C29.8109 25.3778 30.8672 24.1409 31.369 22.495C31.6701 21.5184 31.7065 20.4794 31.4744 19.4842C31.4744 19.424 31.4543 19.3663 31.4292 19.2458Z" fill="#A88B5B"/>
</svg>
