<svg width="48" height="48" viewBox="0 0 48 48" fill="none" xmlns="http://www.w3.org/2000/svg">
<g clip-path="url(#clip0_46_2)">
<rect width="48" height="48" rx="24" fill="#333333"/>
<mask id="mask0_46_2" style="mask-type:alpha" maskUnits="userSpaceOnUse" x="0" y="0" width="48" height="48">
<path d="M48 0H0V48H48V0Z" fill="#D9D9D9"/>
</mask>
<g mask="url(#mask0_46_2)">
<path d="M20.7812 29.3125L24.2919 27.1712L27.8313 29.3125L26.875 25.3L30.0062 22.6375L25.9148 22.2535L24.2875 18.5125L22.6706 22.2535L18.6062 22.6375L21.7 25.3L20.7812 29.3125ZM24.2875 38.5375L20.0805 34.3375H14.2375V28.4946L10 24.2875L14.2375 20.0805V14.2375H20.0805L24.2875 10L28.4946 14.2375H34.3375V20.0805L38.575 24.2875L34.3375 28.4946V34.3375H28.4946L24.2875 38.5375Z" fill="#A88B5B"/>
</g>
</g>
<defs>
<clipPath id="clip0_46_2">
<rect width="48" height="48" rx="24" fill="white"/>
</clipPath>
</defs>
</svg>
