<svg width="48" height="48" viewBox="0 0 48 48" fill="none" xmlns="http://www.w3.org/2000/svg">
<g clip-path="url(#clip0_46_8)">
<rect width="48" height="48" rx="24" fill="#333333"/>
<mask id="mask0_46_8" style="mask-type:alpha" maskUnits="userSpaceOnUse" x="0" y="0" width="48" height="48">
<path d="M48 0H0V48H48V0Z" fill="#D9D9D9"/>
</mask>
<g mask="url(#mask0_46_8)">
<path d="M17 11H30.5V21.4993C30.5 22.0264 30.35 22.5208 30.05 22.9825C29.75 23.4441 29.3354 23.8389 28.8061 24.1668L23.8625 27.125L24.9533 30.7625H28.6625L25.5885 32.9487L26.8231 36.725L23.7491 34.4178L20.675 36.725L21.875 32.9375L18.8375 30.7625H22.5467L23.6375 27.125L18.6564 24.2418C18.1271 23.9265 17.7187 23.5285 17.4312 23.0481C17.1438 22.5677 17 22.0514 17 21.4993V11ZM23.375 11.825V26L23.8063 26.2062L24.2 26V11.825H23.375Z" fill="#A88B5B"/>
</g>
</g>
<defs>
<clipPath id="clip0_46_8">
<rect width="48" height="48" rx="24" fill="white"/>
</clipPath>
</defs>
</svg>
