<svg width="48" height="48" viewBox="0 0 48 48" fill="none" xmlns="http://www.w3.org/2000/svg">
<mask id="mask0_6_3928" style="mask-type:alpha" maskUnits="userSpaceOnUse" x="0" y="0" width="48" height="48">
<rect width="48" height="48" fill="#D9D9D9"/>
</mask>
<g mask="url(#mask0_6_3928)">
<path d="M23.9965 22.0501C25.1486 22.0501 26.1204 21.6553 26.9121 20.8657C27.7038 20.0761 28.0996 19.0886 28.0996 17.9032C28.0996 16.7511 27.7048 15.7793 26.9152 14.9876C26.1256 14.1959 25.1548 13.8001 24.0027 13.8001C22.8506 13.8001 21.8788 14.1949 21.0871 14.9845C20.2954 15.7741 19.8996 16.7449 19.8996 17.897C19.8996 19.0824 20.2944 20.0709 21.084 20.8626C21.8736 21.6543 22.8444 22.0501 23.9965 22.0501ZM17.8746 39.4001V38.3001H23.4746V30.044C21.6413 29.7481 20.0395 28.9769 18.6692 27.7304C17.2989 26.484 16.3854 24.9406 15.9287 23.1001C13.9093 22.8668 12.1829 22.0918 10.7496 20.7751C9.31628 19.4584 8.59961 17.8334 8.59961 15.9001V13.8001C8.59961 13.5334 8.70794 13.2834 8.92461 13.0501C9.14128 12.8168 9.39961 12.7001 9.69961 12.7001H15.7496V8.6001H32.2496V12.7001H38.2996C38.5996 12.7001 38.8579 12.8168 39.0746 13.0501C39.2913 13.2834 39.3996 13.5334 39.3996 13.8001V15.9001C39.3996 17.8334 38.6829 19.4584 37.2496 20.7751C35.8163 22.0918 34.1014 22.8668 32.105 23.1001C31.6391 24.9334 30.7192 26.4745 29.3453 27.7232C27.9713 28.9719 26.3811 29.7476 24.5746 30.0501V38.3001H30.1746V39.4001H17.8746ZM15.7496 21.9501V13.8001H9.69961V15.9001C9.69961 17.5168 10.2954 18.9043 11.4871 20.0626C12.6788 21.2209 14.0996 21.8501 15.7496 21.9501ZM32.2496 21.9501C33.8996 21.8501 35.3204 21.2209 36.5121 20.0626C37.7038 18.9043 38.2996 17.5168 38.2996 15.9001V13.8001H32.2496V21.9501Z" fill="#DFB187"/>
</g>
</svg>
