<svg width="48" height="48" viewBox="0 0 48 48" fill="none" xmlns="http://www.w3.org/2000/svg">
<mask id="mask0_6_3922" style="mask-type:alpha" maskUnits="userSpaceOnUse" x="0" y="0" width="48" height="48">
<rect width="48" height="48" fill="#D9D9D9"/>
</mask>
<g mask="url(#mask0_6_3922)">
<path d="M15 5.5H33V19.4991C33 20.2019 32.8 20.8611 32.4 21.4767C32 22.0922 31.4472 22.6186 30.7415 23.0558L24.15 27L25.6044 31.85H30.55L26.4513 34.765L28.0975 39.8L23.9988 36.7237L19.9 39.8L21.5 34.75L17.45 31.85H22.3956L23.85 27L17.2085 23.1558C16.5028 22.7353 15.9583 22.2047 15.575 21.5642C15.1917 20.9236 15 20.2352 15 19.4991V5.5ZM23.5 6.6V25.5L24.075 25.775L24.6 25.5V6.6H23.5Z" fill="#DFB187"/>
</g>
</svg>
