<svg width="48" height="48" viewBox="0 0 48 48" fill="none" xmlns="http://www.w3.org/2000/svg">
<g clip-path="url(#clip0_46_14)">
<rect width="48" height="48" rx="24" fill="#333333"/>
<mask id="mask0_46_14" style="mask-type:alpha" maskUnits="userSpaceOnUse" x="0" y="0" width="48" height="48">
<path d="M48 0H0V48H48V0Z" fill="#D9D9D9"/>
</mask>
<g mask="url(#mask0_46_14)">
<path d="M23.5477 22.0875C24.4117 22.0875 25.1406 21.7914 25.7344 21.1992C26.3281 20.607 26.625 19.8664 26.625 18.9773C26.625 18.1133 26.3289 17.3844 25.7367 16.7906C25.1445 16.1969 24.4164 15.9 23.5523 15.9C22.6882 15.9 21.9594 16.1961 21.3656 16.7883C20.7718 17.3805 20.475 18.1086 20.475 18.9727C20.475 19.8617 20.7711 20.6031 21.3633 21.1969C21.9555 21.7907 22.6836 22.0875 23.5477 22.0875ZM18.9562 35.1V34.275H23.1562V28.0829C21.7813 27.861 20.5799 27.2826 19.5522 26.3477C18.5245 25.4129 17.8393 24.2554 17.4968 22.875C15.9823 22.7 14.6875 22.1188 13.6125 21.1313C12.5375 20.1437 12 18.925 12 17.475V15.9C12 15.7 12.0812 15.5125 12.2437 15.3375C12.4063 15.1625 12.6 15.075 12.825 15.075H17.3625V12H29.7375V15.075H34.275C34.5 15.075 34.6937 15.1625 34.8562 15.3375C35.0188 15.5125 35.1 15.7 35.1 15.9V17.475C35.1 18.925 34.5625 20.1437 33.4875 21.1313C32.4125 22.1188 31.1263 22.7 29.629 22.875C29.2796 24.25 28.5897 25.4058 27.5593 26.3423C26.5288 27.2789 25.3361 27.8606 23.9812 28.0875V34.275H28.1812V35.1H18.9562ZM17.3625 22.0125V15.9H12.825V17.475C12.825 18.6875 13.2718 19.7281 14.1656 20.5969C15.0594 21.4656 16.125 21.9375 17.3625 22.0125ZM29.7375 22.0125C30.975 21.9375 32.0406 21.4656 32.9344 20.5969C33.8281 19.7281 34.275 18.6875 34.275 17.475V15.9H29.7375V22.0125Z" fill="#A88B5B"/>
</g>
</g>
<defs>
<clipPath id="clip0_46_14">
<rect width="48" height="48" rx="24" fill="white"/>
</clipPath>
</defs>
</svg>
