<svg width="638" height="300" viewBox="0 0 638 300" fill="none" xmlns="http://www.w3.org/2000/svg">
<path fill-rule="evenodd" clip-rule="evenodd" d="M239.642 67.6199L239.534 88.1281L239.642 108.153L239.451 108.065L239.259 107.978L235.852 104.237L232.445 100.495L227.817 96.0736L223.188 91.6519L220.772 90.0422L218.357 88.4325L216.375 87.6326L214.393 86.8326L212.314 86.2213L210.235 85.61L188.268 85.4917L166.3 85.3734V110.76V136.147H189.756H213.211V154.169V172.19H213.076H212.94L211.024 169.828L209.109 167.466L206.446 164.529L203.783 161.592L201.583 159.721L199.383 157.851L197.107 156.661L194.832 155.471L192.312 154.907L189.793 154.344H178.047H166.3L166.224 167.904L166.149 181.463L166.194 189.796L166.24 198.128L166.83 200.819L167.42 203.509L168.75 206.369L170.081 209.229L171.228 210.918L172.375 212.607L175.244 216.107L178.114 219.606L181.572 222.941L185.03 226.276L186.693 227.462L188.355 228.648L188.552 228.819L188.694 228.939L189.057 229.245L189.032 229.229L191.063 230.541L193.109 232.057H169.932H146.696L146.632 218.833L146.568 205.609L146.537 203.509L146.507 201.409L146.426 143.408L146.346 85.4074L103.281 85.491L60.2266 85.371L66.9656 78.0889L73.7046 71.26L75.5198 69.3802L77.3349 67.5H158.329H239.642V67.6199Z" fill="url(#paint0_linear_162_70)"/>
<path d="M124.683 199.189L124.629 107.8L146.576 85.371L147.056 232.057H122.651H98.3445H97.165L97.9048 231.592L100.682 229.926L103.459 228.259L106.541 225.802L109.623 223.345L113.324 219.544L117.026 215.743L118.994 213.117L119.319 212.683C120.412 211.224 121.372 209.67 122.187 208.038L122.431 207.551C123.084 206.244 123.625 204.884 124.048 203.486C124.47 202.092 124.683 200.645 124.683 199.189Z" fill="#39393A"/>
<path d="M60.4664 129.989L60.2266 85.371H146.576L124.629 107.8L86.9115 107.853L86.2611 107.914C84.2538 108.103 82.2853 108.586 80.4189 109.349C78.9149 109.963 77.4891 110.754 76.1716 111.705L75.6581 112.076C74.2903 113.063 73.0253 114.184 71.8631 115.406C70.6235 116.711 69.3241 118.047 69.048 118.229C68.6276 118.506 63.1518 126.184 60.4664 129.989Z" fill="#2E2E30"/>
<path d="M335.592 120C335.466 120 335.403 119.874 335.403 119.622C335.403 119.37 335.466 119.244 335.592 119.244C337.104 119.244 338.217 119.139 338.931 118.929C339.687 118.719 340.191 118.32 340.443 117.732C340.737 117.102 340.884 116.157 340.884 114.897V85.728C340.884 84.3 340.695 83.334 340.317 82.83C339.939 82.326 339.162 82.074 337.986 82.074C332.988 82.074 329.397 85.329 327.213 91.839C327.171 91.965 327.045 92.028 326.835 92.028C326.625 91.986 326.52 91.902 326.52 91.776C326.688 90.096 326.877 87.933 327.087 85.287C327.297 82.599 327.402 80.583 327.402 79.239C327.402 79.029 327.507 78.924 327.717 78.924C327.969 78.924 328.095 79.029 328.095 79.239C328.095 80.163 329.292 80.625 331.686 80.625C335.298 80.751 339.519 80.814 344.349 80.814C350.775 80.814 354.849 80.751 356.571 80.625C359.133 80.499 361.338 79.848 363.186 78.672C365.076 77.496 366.483 76.047 367.407 74.325C367.491 74.199 367.659 74.136 367.911 74.136C368.373 74.136 368.604 74.241 368.604 74.451V114.897C368.604 116.577 368.835 117.732 369.297 118.362C369.759 118.95 370.641 119.244 371.943 119.244C372.111 119.244 372.195 119.37 372.195 119.622C372.195 119.874 372.111 120 371.943 120C370.851 120 369.99 119.979 369.36 119.937L365.643 119.874L361.863 119.937C361.233 119.979 360.372 120 359.28 120C359.196 120 359.154 119.874 359.154 119.622C359.154 119.37 359.196 119.244 359.28 119.244C360.582 119.244 361.464 118.95 361.926 118.362C362.43 117.732 362.682 116.577 362.682 114.897V83.145C362.682 82.725 362.577 82.452 362.367 82.326C362.199 82.158 361.863 82.074 361.359 82.074H350.964C349.746 82.074 348.927 82.347 348.507 82.893C348.129 83.397 347.94 84.384 347.94 85.854V114.897C347.94 116.199 348.066 117.144 348.318 117.732C348.57 118.32 349.053 118.719 349.767 118.929C350.481 119.139 351.615 119.244 353.169 119.244C353.295 119.244 353.358 119.37 353.358 119.622C353.358 119.874 353.295 120 353.169 120C351.657 120 350.46 119.979 349.578 119.937L344.349 119.874L339.246 119.937C338.364 119.979 337.146 120 335.592 120ZM376.227 120C376.143 120 376.101 119.874 376.101 119.622C376.101 119.37 376.143 119.244 376.227 119.244C377.529 119.244 378.411 118.95 378.873 118.362C379.377 117.732 379.629 116.577 379.629 114.897V105.825C379.629 103.557 379.209 101.877 378.369 100.785C377.529 99.693 376.227 99.147 374.463 99.147C373.161 99.147 371.838 99.483 370.494 100.155C369.192 100.827 368.163 101.709 367.407 102.801V101.604C368.835 99.504 370.473 97.866 372.321 96.69C374.169 95.514 376.122 94.926 378.18 94.926C380.448 94.926 382.233 95.661 383.535 97.131C384.879 98.559 385.551 100.449 385.551 102.801V114.897C385.551 116.577 385.782 117.732 386.244 118.362C386.706 118.95 387.588 119.244 388.89 119.244C389.058 119.244 389.142 119.37 389.142 119.622C389.142 119.874 389.058 120 388.89 120C387.798 120 386.937 119.979 386.307 119.937L382.59 119.874L378.81 119.937C378.18 119.979 377.319 120 376.227 120ZM410.112 120.378C409.944 120.462 409.734 120.504 409.482 120.504C408.642 120.504 407.865 119.979 407.151 118.929C406.437 117.837 406.08 116.409 406.08 114.645V103.935C406.08 101.247 405.849 99.294 405.387 98.076C404.967 96.858 404.232 96.249 403.182 96.249C400.956 96.249 399.696 97.971 399.402 101.415C399.276 102.675 398.898 103.578 398.268 104.124C397.68 104.67 396.84 104.943 395.748 104.943C394.698 104.943 393.921 104.733 393.417 104.313C392.955 103.851 392.724 103.263 392.724 102.549C392.724 101.289 393.459 100.092 394.929 98.958C396.399 97.782 398.163 96.837 400.221 96.123C402.321 95.409 404.169 95.052 405.765 95.052C407.613 95.052 409.104 95.64 410.238 96.816C411.414 97.95 412.002 99.693 412.002 102.045V113.196C412.002 114.414 412.212 115.359 412.632 116.031C413.094 116.703 413.724 117.039 414.522 117.039C415.11 117.039 415.719 116.892 416.349 116.598H416.412C416.58 116.598 416.685 116.703 416.727 116.913C416.811 117.081 416.769 117.207 416.601 117.291L410.112 120.378ZM398.016 120.441C396.21 120.441 394.845 120.042 393.921 119.244C392.997 118.446 392.535 117.333 392.535 115.905C392.535 114.771 392.808 113.868 393.354 113.196C393.9 112.482 394.572 111.936 395.37 111.558C396.21 111.138 397.365 110.676 398.835 110.172L400.41 109.605L406.71 107.274L406.962 108.219L403.371 109.857C403.245 109.899 402.825 110.067 402.111 110.361C401.397 110.613 400.767 111.054 400.221 111.684C399.717 112.314 399.465 113.049 399.465 113.889C399.465 114.897 399.78 115.695 400.41 116.283C401.082 116.829 401.838 117.102 402.678 117.102C403.35 117.102 404.043 116.871 404.757 116.409L407.907 114.267L407.97 115.275L403.56 118.425C402.594 119.139 401.691 119.664 400.851 120C400.011 120.294 399.066 120.441 398.016 120.441ZM443.945 95.682C444.029 95.682 444.071 95.808 444.071 96.06C444.071 96.312 444.029 96.438 443.945 96.438C442.601 96.438 441.425 97.026 440.417 98.202C439.451 99.336 438.569 100.995 437.771 103.179L430.778 121.764C428.552 127.644 426.41 131.76 424.352 134.112C422.336 136.506 420.089 137.703 417.611 137.703C416.351 137.703 415.385 137.43 414.713 136.884C414.041 136.38 413.705 135.624 413.705 134.616C413.705 133.65 413.999 132.915 414.587 132.411C415.175 131.907 415.889 131.655 416.729 131.655C417.191 131.655 417.569 131.718 417.863 131.844C418.199 131.97 418.598 132.18 419.06 132.474C419.858 133.02 420.614 133.293 421.328 133.293C422.336 133.293 423.26 132.852 424.1 131.97C424.94 131.13 425.822 129.702 426.746 127.686C427.67 125.712 428.825 122.835 430.211 119.055L430.022 122.52L419.312 100.911C418.388 99.105 417.653 97.908 417.107 97.32C416.603 96.732 415.973 96.438 415.217 96.438C415.091 96.438 415.028 96.312 415.028 96.06C415.028 95.808 415.091 95.682 415.217 95.682C416.393 95.682 417.296 95.703 417.926 95.745L420.572 95.808L424.919 95.745C425.591 95.703 426.494 95.682 427.628 95.682C427.754 95.682 427.817 95.808 427.817 96.06C427.817 96.312 427.754 96.438 427.628 96.438C426.536 96.438 425.738 96.543 425.234 96.753C424.73 96.921 424.478 97.215 424.478 97.635C424.478 97.971 424.604 98.391 424.856 98.895L432.857 115.275L430.589 118.992L436.07 103.116C436.448 102.024 436.637 101.037 436.637 100.155C436.637 98.979 436.301 98.076 435.629 97.446C434.957 96.774 433.991 96.438 432.731 96.438C432.647 96.438 432.605 96.312 432.605 96.06C432.605 95.808 432.647 95.682 432.731 95.682C433.865 95.682 434.726 95.703 435.314 95.745L439.094 95.808L441.614 95.745C442.118 95.703 442.895 95.682 443.945 95.682ZM462.452 120C462.326 120 462.263 119.874 462.263 119.622C462.263 119.37 462.326 119.244 462.452 119.244C463.754 119.244 464.636 118.95 465.098 118.362C465.56 117.732 465.791 116.577 465.791 114.897V105.825C465.791 103.557 465.371 101.877 464.531 100.785C463.733 99.693 462.452 99.147 460.688 99.147C459.386 99.147 458.063 99.483 456.719 100.155C455.417 100.785 454.388 101.625 453.632 102.675L453.317 101.919C454.829 99.735 456.509 98.034 458.357 96.816C460.247 95.556 462.242 94.926 464.342 94.926C466.61 94.926 468.395 95.661 469.697 97.131C471.041 98.559 471.713 100.449 471.713 102.801V114.897C471.713 116.577 471.944 117.732 472.406 118.362C472.91 118.95 473.813 119.244 475.115 119.244C475.241 119.244 475.304 119.37 475.304 119.622C475.304 119.874 475.241 120 475.115 120C474.023 120 473.162 119.979 472.532 119.937L468.752 119.874L465.098 119.937C464.426 119.979 463.544 120 462.452 120ZM445.505 120C445.379 120 445.316 119.874 445.316 119.622C445.316 119.37 445.379 119.244 445.505 119.244C446.807 119.244 447.689 118.95 448.151 118.362C448.613 117.732 448.844 116.577 448.844 114.897V103.053C448.844 101.751 448.676 100.806 448.34 100.218C448.046 99.588 447.563 99.273 446.891 99.273C446.177 99.273 445.169 99.567 443.867 100.155H443.741C443.615 100.155 443.51 100.05 443.426 99.84C443.384 99.63 443.405 99.504 443.489 99.462L452.246 95.178C452.498 95.094 452.645 95.052 452.687 95.052C453.191 95.052 453.653 95.598 454.073 96.69C454.535 97.74 454.766 99.147 454.766 100.911V114.897C454.766 116.577 454.997 117.732 455.459 118.362C455.963 118.95 456.866 119.244 458.168 119.244C458.294 119.244 458.357 119.37 458.357 119.622C458.357 119.874 458.294 120 458.168 120C457.076 120 456.215 119.979 455.585 119.937L451.805 119.874L448.088 119.937C447.458 119.979 446.597 120 445.505 120ZM496.306 120.378C496.138 120.462 495.928 120.504 495.676 120.504C494.836 120.504 494.059 119.979 493.345 118.929C492.631 117.837 492.274 116.409 492.274 114.645V103.935C492.274 101.247 492.043 99.294 491.581 98.076C491.161 96.858 490.426 96.249 489.376 96.249C487.15 96.249 485.89 97.971 485.596 101.415C485.47 102.675 485.092 103.578 484.462 104.124C483.874 104.67 483.034 104.943 481.942 104.943C480.892 104.943 480.115 104.733 479.611 104.313C479.149 103.851 478.918 103.263 478.918 102.549C478.918 101.289 479.653 100.092 481.123 98.958C482.593 97.782 484.357 96.837 486.415 96.123C488.515 95.409 490.363 95.052 491.959 95.052C493.807 95.052 495.298 95.64 496.432 96.816C497.608 97.95 498.196 99.693 498.196 102.045V113.196C498.196 114.414 498.406 115.359 498.826 116.031C499.288 116.703 499.918 117.039 500.716 117.039C501.304 117.039 501.913 116.892 502.543 116.598H502.606C502.774 116.598 502.879 116.703 502.921 116.913C503.005 117.081 502.963 117.207 502.795 117.291L496.306 120.378ZM484.21 120.441C482.404 120.441 481.039 120.042 480.115 119.244C479.191 118.446 478.729 117.333 478.729 115.905C478.729 114.771 479.002 113.868 479.548 113.196C480.094 112.482 480.766 111.936 481.564 111.558C482.404 111.138 483.559 110.676 485.029 110.172L486.604 109.605L492.904 107.274L493.156 108.219L489.565 109.857C489.439 109.899 489.019 110.067 488.305 110.361C487.591 110.613 486.961 111.054 486.415 111.684C485.911 112.314 485.659 113.049 485.659 113.889C485.659 114.897 485.974 115.695 486.604 116.283C487.276 116.829 488.032 117.102 488.872 117.102C489.544 117.102 490.237 116.871 490.951 116.409L494.101 114.267L494.164 115.275L489.754 118.425C488.788 119.139 487.885 119.664 487.045 120C486.205 120.294 485.26 120.441 484.21 120.441ZM326.142 181C326.016 181 325.953 180.874 325.953 180.622C325.953 180.37 326.016 180.244 326.142 180.244C327.612 180.244 328.683 180.139 329.355 179.929C330.027 179.719 330.468 179.32 330.678 178.732C330.93 178.102 331.056 177.157 331.056 175.897V146.728C331.056 145.468 330.951 144.544 330.741 143.956C330.531 143.368 330.111 142.969 329.481 142.759C328.851 142.507 327.885 142.381 326.583 142.381C326.457 142.381 326.394 142.255 326.394 142.003C326.394 141.751 326.457 141.625 326.583 141.625H353.295C353.715 141.625 353.925 141.814 353.925 142.192L354.051 150.571C354.051 150.655 353.925 150.718 353.673 150.76C353.463 150.802 353.337 150.76 353.295 150.634C352.623 148.198 351.489 146.392 349.893 145.216C348.297 144.04 346.197 143.452 343.593 143.452H341.703C340.443 143.452 339.519 143.725 338.931 144.271C338.343 144.817 338.049 145.657 338.049 146.791V175.645C338.049 176.947 338.217 177.913 338.553 178.543C338.889 179.173 339.519 179.614 340.443 179.866C341.367 180.118 342.816 180.244 344.79 180.244C344.874 180.244 344.916 180.37 344.916 180.622C344.916 180.874 344.874 181 344.79 181C343.068 181 341.724 180.979 340.758 180.937L334.332 180.874L329.607 180.937C328.767 180.979 327.612 181 326.142 181ZM350.145 167.644C350.145 165.964 349.473 164.641 348.129 163.675C346.827 162.667 344.958 162.163 342.522 162.163H334.71V160.399H342.585C345.021 160.399 346.869 159.979 348.129 159.139C349.431 158.257 350.082 157.06 350.082 155.548C350.082 155.464 350.208 155.422 350.46 155.422C350.712 155.422 350.838 155.464 350.838 155.548L350.775 161.281C350.775 162.625 350.796 163.633 350.838 164.305L350.901 167.644C350.901 167.77 350.775 167.833 350.523 167.833C350.271 167.833 350.145 167.77 350.145 167.644ZM366.554 163.108C368.864 160.462 370.712 158.635 372.098 157.627C373.526 156.577 374.744 156.052 375.752 156.052C376.718 156.052 377.642 156.409 378.524 157.123C379.448 157.795 379.91 158.614 379.91 159.58C379.91 160.462 379.637 161.197 379.091 161.785C378.545 162.331 377.831 162.604 376.949 162.604C376.319 162.604 375.794 162.478 375.374 162.226C374.996 161.974 374.597 161.596 374.177 161.092C373.799 160.672 373.463 160.378 373.169 160.21C372.917 160 372.602 159.895 372.224 159.895C371.762 159.895 371.174 160.147 370.46 160.651C369.788 161.155 368.654 162.247 367.058 163.927L366.554 163.108ZM359.372 181C359.246 181 359.183 180.874 359.183 180.622C359.183 180.37 359.246 180.244 359.372 180.244C360.674 180.244 361.556 179.95 362.018 179.362C362.48 178.732 362.711 177.577 362.711 175.897V164.053C362.711 162.751 362.543 161.806 362.207 161.218C361.913 160.588 361.43 160.273 360.758 160.273C360.044 160.273 359.036 160.567 357.734 161.155H357.608C357.482 161.155 357.377 161.05 357.293 160.84C357.251 160.63 357.272 160.504 357.356 160.462L366.113 156.178C366.365 156.094 366.512 156.052 366.554 156.052C367.058 156.052 367.52 156.598 367.94 157.69C368.402 158.74 368.633 160.147 368.633 161.911V175.897C368.633 177.577 369.032 178.732 369.83 179.362C370.628 179.95 372.098 180.244 374.24 180.244C374.408 180.244 374.492 180.37 374.492 180.622C374.492 180.874 374.408 181 374.24 181C372.77 181 371.615 180.979 370.775 180.937L365.672 180.874L361.955 180.937C361.325 180.979 360.464 181 359.372 181ZM400.145 181.378C399.977 181.462 399.767 181.504 399.515 181.504C398.675 181.504 397.898 180.979 397.184 179.929C396.47 178.837 396.113 177.409 396.113 175.645V164.935C396.113 162.247 395.882 160.294 395.42 159.076C395 157.858 394.265 157.249 393.215 157.249C390.989 157.249 389.729 158.971 389.435 162.415C389.309 163.675 388.931 164.578 388.301 165.124C387.713 165.67 386.873 165.943 385.781 165.943C384.731 165.943 383.954 165.733 383.45 165.313C382.988 164.851 382.757 164.263 382.757 163.549C382.757 162.289 383.492 161.092 384.962 159.958C386.432 158.782 388.196 157.837 390.254 157.123C392.354 156.409 394.202 156.052 395.798 156.052C397.646 156.052 399.137 156.64 400.271 157.816C401.447 158.95 402.035 160.693 402.035 163.045V174.196C402.035 175.414 402.245 176.359 402.665 177.031C403.127 177.703 403.757 178.039 404.555 178.039C405.143 178.039 405.752 177.892 406.382 177.598H406.445C406.613 177.598 406.718 177.703 406.76 177.913C406.844 178.081 406.802 178.207 406.634 178.291L400.145 181.378ZM388.049 181.441C386.243 181.441 384.878 181.042 383.954 180.244C383.03 179.446 382.568 178.333 382.568 176.905C382.568 175.771 382.841 174.868 383.387 174.196C383.933 173.482 384.605 172.936 385.403 172.558C386.243 172.138 387.398 171.676 388.868 171.172L390.443 170.605L396.743 168.274L396.995 169.219L393.404 170.857C393.278 170.899 392.858 171.067 392.144 171.361C391.43 171.613 390.8 172.054 390.254 172.684C389.75 173.314 389.498 174.049 389.498 174.889C389.498 175.897 389.813 176.695 390.443 177.283C391.115 177.829 391.871 178.102 392.711 178.102C393.383 178.102 394.076 177.871 394.79 177.409L397.94 175.267L398.003 176.275L393.593 179.425C392.627 180.139 391.724 180.664 390.884 181C390.044 181.294 389.099 181.441 388.049 181.441ZM425.968 181C425.842 181 425.779 180.874 425.779 180.622C425.779 180.37 425.842 180.244 425.968 180.244C427.27 180.244 428.152 179.95 428.614 179.362C429.076 178.732 429.307 177.577 429.307 175.897V166.825C429.307 164.557 428.887 162.877 428.047 161.785C427.249 160.693 425.968 160.147 424.204 160.147C422.902 160.147 421.579 160.483 420.235 161.155C418.933 161.785 417.904 162.625 417.148 163.675L416.833 162.919C418.345 160.735 420.025 159.034 421.873 157.816C423.763 156.556 425.758 155.926 427.858 155.926C430.126 155.926 431.911 156.661 433.213 158.131C434.557 159.559 435.229 161.449 435.229 163.801V175.897C435.229 177.577 435.46 178.732 435.922 179.362C436.426 179.95 437.329 180.244 438.631 180.244C438.757 180.244 438.82 180.37 438.82 180.622C438.82 180.874 438.757 181 438.631 181C437.539 181 436.678 180.979 436.048 180.937L432.268 180.874L428.614 180.937C427.942 180.979 427.06 181 425.968 181ZM409.021 181C408.895 181 408.832 180.874 408.832 180.622C408.832 180.37 408.895 180.244 409.021 180.244C410.323 180.244 411.205 179.95 411.667 179.362C412.129 178.732 412.36 177.577 412.36 175.897V164.053C412.36 162.751 412.192 161.806 411.856 161.218C411.562 160.588 411.079 160.273 410.407 160.273C409.693 160.273 408.685 160.567 407.383 161.155H407.257C407.131 161.155 407.026 161.05 406.942 160.84C406.9 160.63 406.921 160.504 407.005 160.462L415.762 156.178C416.014 156.094 416.161 156.052 416.203 156.052C416.707 156.052 417.169 156.598 417.589 157.69C418.051 158.74 418.282 160.147 418.282 161.911V175.897C418.282 177.577 418.513 178.732 418.975 179.362C419.479 179.95 420.382 180.244 421.684 180.244C421.81 180.244 421.873 180.37 421.873 180.622C421.873 180.874 421.81 181 421.684 181C420.592 181 419.731 180.979 419.101 180.937L415.321 180.874L411.604 180.937C410.974 180.979 410.113 181 409.021 181ZM454.468 181.756C451.696 181.756 449.344 181.168 447.412 179.992C445.522 178.774 444.094 177.22 443.128 175.33C442.204 173.398 441.742 171.382 441.742 169.282C441.742 166.636 442.477 164.326 443.947 162.352C445.417 160.336 447.286 158.803 449.554 157.753C451.864 156.661 454.216 156.115 456.61 156.115C458.626 156.115 460.432 156.535 462.028 157.375C463.666 158.215 464.485 159.37 464.485 160.84C464.485 161.638 464.17 162.331 463.54 162.919C462.952 163.465 462.112 163.738 461.02 163.738C460.012 163.738 459.214 163.486 458.626 162.982C458.038 162.436 457.555 161.617 457.177 160.525C456.799 159.349 456.421 158.551 456.043 158.131C455.707 157.669 455.077 157.438 454.153 157.438C452.347 157.438 450.898 158.341 449.806 160.147C448.756 161.911 448.231 164.263 448.231 167.203C448.231 170.689 449.008 173.482 450.562 175.582C452.116 177.64 454.594 178.669 457.996 178.669C459.13 178.669 460.096 178.543 460.894 178.291C461.734 178.039 462.784 177.619 464.044 177.031H464.107C464.233 177.031 464.338 177.094 464.422 177.22C464.548 177.346 464.569 177.451 464.485 177.535C462.931 178.963 461.377 180.034 459.823 180.748C458.269 181.42 456.484 181.756 454.468 181.756ZM473.922 159.706C473.922 160.924 474.342 161.974 475.182 162.856C476.064 163.738 477.324 164.662 478.962 165.628C480.558 166.552 481.734 167.287 482.49 167.833C483.288 168.337 484.002 169.072 484.632 170.038C485.262 170.962 485.577 172.096 485.577 173.44C485.577 174.868 485.22 176.212 484.506 177.472C483.792 178.732 482.721 179.761 481.293 180.559C479.865 181.315 478.164 181.693 476.19 181.693C473.88 181.693 471.696 181.126 469.638 179.992C469.386 179.74 469.26 179.488 469.26 179.236L469.134 172.999C469.134 172.873 469.239 172.81 469.449 172.81C469.701 172.768 469.848 172.789 469.89 172.873C470.562 174.973 471.675 176.758 473.229 178.228C474.783 179.698 476.358 180.433 477.954 180.433C478.836 180.433 479.529 180.16 480.033 179.614C480.579 179.068 480.852 178.27 480.852 177.22C480.852 175.666 480.411 174.448 479.529 173.566C478.647 172.642 477.345 171.697 475.623 170.731C474.153 169.933 473.04 169.282 472.284 168.778C471.528 168.274 470.856 167.56 470.268 166.636C469.68 165.712 469.386 164.578 469.386 163.234C469.386 160.756 470.268 158.95 472.032 157.816C473.796 156.64 475.959 156.052 478.521 156.052C479.487 156.052 480.348 156.115 481.104 156.241C481.902 156.367 482.784 156.619 483.75 156.997C484.128 157.123 484.317 157.354 484.317 157.69C484.317 158.74 484.296 159.559 484.254 160.147L484.191 163.297C484.191 163.423 484.065 163.486 483.813 163.486C483.561 163.486 483.435 163.423 483.435 163.297C483.435 162.499 483.099 161.638 482.427 160.714C481.755 159.748 480.873 158.929 479.781 158.257C478.731 157.585 477.639 157.249 476.505 157.249C474.783 157.249 473.922 158.068 473.922 159.706ZM490.171 181C490.045 181 489.982 180.874 489.982 180.622C489.982 180.37 490.045 180.244 490.171 180.244C491.473 180.244 492.355 179.95 492.817 179.362C493.279 178.732 493.51 177.577 493.51 175.897V164.62C493.51 163.192 493.363 162.163 493.069 161.533C492.775 160.903 492.292 160.588 491.62 160.588C491.074 160.588 490.297 160.819 489.289 161.281H489.226C489.058 161.281 488.932 161.176 488.848 160.966C488.764 160.714 488.785 160.567 488.911 160.525L498.424 156.115L498.613 156.052C498.823 156.052 499.033 156.157 499.243 156.367C499.453 156.577 499.558 156.766 499.558 156.934V158.32C499.474 160 499.432 162.058 499.432 164.494V175.897C499.432 177.577 499.663 178.732 500.125 179.362C500.629 179.95 501.532 180.244 502.834 180.244C502.96 180.244 503.023 180.37 503.023 180.622C503.023 180.874 502.96 181 502.834 181C501.742 181 500.881 180.979 500.251 180.937L496.471 180.874L492.754 180.937C492.124 180.979 491.263 181 490.171 181ZM496.219 149.815C495.001 149.815 494.056 149.479 493.384 148.807C492.712 148.135 492.376 147.19 492.376 145.972C492.376 144.88 492.712 144.019 493.384 143.389C494.098 142.717 495.043 142.381 496.219 142.381C497.395 142.381 498.298 142.696 498.928 143.326C499.558 143.956 499.873 144.838 499.873 145.972C499.873 147.19 499.558 148.135 498.928 148.807C498.298 149.479 497.395 149.815 496.219 149.815ZM519.006 181.756C516.234 181.756 513.882 181.168 511.95 179.992C510.06 178.774 508.632 177.22 507.666 175.33C506.742 173.398 506.28 171.382 506.28 169.282C506.28 166.636 507.015 164.326 508.485 162.352C509.955 160.336 511.824 158.803 514.092 157.753C516.402 156.661 518.754 156.115 521.148 156.115C523.164 156.115 524.97 156.535 526.566 157.375C528.204 158.215 529.023 159.37 529.023 160.84C529.023 161.638 528.708 162.331 528.078 162.919C527.49 163.465 526.65 163.738 525.558 163.738C524.55 163.738 523.752 163.486 523.164 162.982C522.576 162.436 522.093 161.617 521.715 160.525C521.337 159.349 520.959 158.551 520.581 158.131C520.245 157.669 519.615 157.438 518.691 157.438C516.885 157.438 515.436 158.341 514.344 160.147C513.294 161.911 512.769 164.263 512.769 167.203C512.769 170.689 513.546 173.482 515.1 175.582C516.654 177.64 519.132 178.669 522.534 178.669C523.668 178.669 524.634 178.543 525.432 178.291C526.272 178.039 527.322 177.619 528.582 177.031H528.645C528.771 177.031 528.876 177.094 528.96 177.22C529.086 177.346 529.107 177.451 529.023 177.535C527.469 178.963 525.915 180.034 524.361 180.748C522.807 181.42 521.022 181.756 519.006 181.756ZM545.588 181.819C542.984 181.819 540.695 181.231 538.721 180.055C536.789 178.837 535.298 177.22 534.248 175.204C533.198 173.146 532.673 170.92 532.673 168.526C532.673 165.796 533.366 163.486 534.752 161.596C536.138 159.664 537.902 158.236 540.044 157.312C542.186 156.346 544.391 155.863 546.659 155.863C549.263 155.863 551.531 156.472 553.463 157.69C555.395 158.908 556.865 160.525 557.873 162.541C558.923 164.515 559.448 166.636 559.448 168.904C559.448 171.424 558.818 173.671 557.558 175.645C556.298 177.577 554.597 179.089 552.455 180.181C550.355 181.273 548.066 181.819 545.588 181.819ZM547.478 180.496C549.116 180.496 550.355 179.698 551.195 178.102C552.077 176.464 552.518 174.133 552.518 171.109C552.518 168.169 552.14 165.649 551.384 163.549C550.628 161.449 549.641 159.874 548.423 158.824C547.205 157.732 545.903 157.186 544.517 157.186C541.157 157.186 539.477 160.189 539.477 166.195C539.477 169.009 539.834 171.508 540.548 173.692C541.262 175.834 542.228 177.514 543.446 178.732C544.664 179.908 546.008 180.496 547.478 180.496Z" fill="white"/>
<path d="M324.168 224L331.944 207.2H332.736L340.512 224H339.624L332.16 207.752H332.52L325.056 224H324.168ZM326.856 219.08L327.168 218.384H337.44L337.752 219.08H326.856ZM343.783 224V207.2H350.263C352.055 207.2 353.615 207.568 354.943 208.304C356.271 209.024 357.303 210.016 358.039 211.28C358.791 212.528 359.167 213.968 359.167 215.6C359.167 217.232 358.791 218.68 358.039 219.944C357.303 221.192 356.271 222.184 354.943 222.92C353.615 223.64 352.055 224 350.263 224H343.783ZM344.599 223.256H350.215C351.863 223.256 353.295 222.928 354.511 222.272C355.743 221.616 356.687 220.712 357.343 219.56C358.015 218.408 358.351 217.088 358.351 215.6C358.351 214.112 358.015 212.792 357.343 211.64C356.687 210.488 355.743 209.584 354.511 208.928C353.295 208.272 351.863 207.944 350.215 207.944H344.599V223.256ZM367.798 224L360.262 207.2H361.174L368.446 223.448H367.99L375.262 207.2H376.126L368.59 224H367.798ZM385.876 224.096C384.644 224.096 383.5 223.888 382.444 223.472C381.388 223.04 380.468 222.44 379.684 221.672C378.9 220.904 378.292 220.008 377.86 218.984C377.428 217.944 377.212 216.816 377.212 215.6C377.212 214.384 377.428 213.264 377.86 212.24C378.292 211.2 378.9 210.296 379.684 209.528C380.468 208.76 381.388 208.168 382.444 207.752C383.5 207.32 384.644 207.104 385.876 207.104C387.124 207.104 388.276 207.32 389.332 207.752C390.388 208.168 391.3 208.76 392.068 209.528C392.852 210.296 393.46 211.2 393.892 212.24C394.34 213.264 394.564 214.384 394.564 215.6C394.564 216.816 394.34 217.944 393.892 218.984C393.46 220.008 392.852 220.904 392.068 221.672C391.3 222.44 390.388 223.04 389.332 223.472C388.276 223.888 387.124 224.096 385.876 224.096ZM385.876 223.352C386.996 223.352 388.036 223.16 388.996 222.776C389.956 222.392 390.788 221.848 391.492 221.144C392.212 220.44 392.764 219.624 393.148 218.696C393.548 217.752 393.748 216.72 393.748 215.6C393.748 214.48 393.548 213.456 393.148 212.528C392.764 211.584 392.212 210.76 391.492 210.056C390.788 209.352 389.956 208.808 388.996 208.424C388.036 208.04 386.996 207.848 385.876 207.848C384.772 207.848 383.74 208.04 382.78 208.424C381.82 208.808 380.98 209.352 380.26 210.056C379.556 210.76 379.004 211.584 378.604 212.528C378.22 213.456 378.028 214.48 378.028 215.6C378.028 216.72 378.22 217.752 378.604 218.696C379.004 219.624 379.556 220.44 380.26 221.144C380.98 221.848 381.82 222.392 382.78 222.776C383.74 223.16 384.772 223.352 385.876 223.352ZM405.962 224.096C404.73 224.096 403.586 223.888 402.53 223.472C401.474 223.04 400.554 222.44 399.77 221.672C398.986 220.904 398.378 220.008 397.946 218.984C397.514 217.944 397.298 216.816 397.298 215.6C397.298 214.384 397.514 213.264 397.946 212.24C398.378 211.2 398.986 210.296 399.77 209.528C400.554 208.76 401.474 208.168 402.53 207.752C403.586 207.32 404.73 207.104 405.962 207.104C407.098 207.104 408.17 207.288 409.178 207.656C410.186 208.024 411.058 208.584 411.794 209.336L411.29 209.864C410.538 209.144 409.714 208.632 408.818 208.328C407.938 208.008 406.994 207.848 405.986 207.848C404.866 207.848 403.826 208.048 402.866 208.448C401.906 208.832 401.066 209.376 400.346 210.08C399.642 210.784 399.09 211.608 398.69 212.552C398.306 213.48 398.114 214.496 398.114 215.6C398.114 216.704 398.306 217.728 398.69 218.672C399.09 219.6 399.642 220.416 400.346 221.12C401.066 221.824 401.906 222.376 402.866 222.776C403.826 223.16 404.866 223.352 405.986 223.352C406.994 223.352 407.938 223.2 408.818 222.896C409.714 222.576 410.538 222.048 411.29 221.312L411.794 221.84C411.058 222.592 410.186 223.16 409.178 223.544C408.17 223.912 407.098 224.096 405.962 224.096ZM412.762 224L420.538 207.2H421.33L429.106 224H428.218L420.754 207.752H421.114L413.65 224H412.762ZM415.45 219.08L415.762 218.384H426.034L426.346 219.08H415.45ZM439.102 224.096C437.87 224.096 436.726 223.888 435.67 223.472C434.614 223.04 433.694 222.44 432.91 221.672C432.126 220.904 431.518 220.008 431.086 218.984C430.654 217.944 430.438 216.816 430.438 215.6C430.438 214.384 430.654 213.264 431.086 212.24C431.518 211.2 432.126 210.296 432.91 209.528C433.694 208.76 434.614 208.168 435.67 207.752C436.726 207.32 437.87 207.104 439.102 207.104C440.238 207.104 441.31 207.288 442.318 207.656C443.326 208.024 444.198 208.584 444.934 209.336L444.43 209.864C443.678 209.144 442.854 208.632 441.958 208.328C441.078 208.008 440.134 207.848 439.126 207.848C438.006 207.848 436.966 208.048 436.006 208.448C435.046 208.832 434.206 209.376 433.486 210.08C432.782 210.784 432.23 211.608 431.83 212.552C431.446 213.48 431.254 214.496 431.254 215.6C431.254 216.704 431.446 217.728 431.83 218.672C432.23 219.6 432.782 220.416 433.486 221.12C434.206 221.824 435.046 222.376 436.006 222.776C436.966 223.16 438.006 223.352 439.126 223.352C440.134 223.352 441.078 223.2 441.958 222.896C442.854 222.576 443.678 222.048 444.43 221.312L444.934 221.84C444.198 222.592 443.326 223.16 442.318 223.544C441.31 223.912 440.238 224.096 439.102 224.096ZM449.252 224V207.2H450.068V224H449.252ZM453.309 224L461.085 207.2H461.877L469.653 224H468.765L461.301 207.752H461.661L454.197 224H453.309ZM455.997 219.08L456.309 218.384H466.581L466.893 219.08H455.997ZM485.954 224.096C484.722 224.096 483.578 223.888 482.522 223.472C481.466 223.04 480.546 222.44 479.762 221.672C478.978 220.904 478.37 220.008 477.938 218.984C477.506 217.944 477.29 216.816 477.29 215.6C477.29 214.384 477.506 213.264 477.938 212.24C478.37 211.2 478.978 210.296 479.762 209.528C480.546 208.76 481.466 208.168 482.522 207.752C483.578 207.32 484.722 207.104 485.954 207.104C487.09 207.104 488.162 207.288 489.17 207.656C490.178 208.024 491.05 208.584 491.786 209.336L491.282 209.864C490.53 209.144 489.706 208.632 488.81 208.328C487.93 208.008 486.986 207.848 485.978 207.848C484.858 207.848 483.818 208.048 482.858 208.448C481.898 208.832 481.058 209.376 480.338 210.08C479.634 210.784 479.082 211.608 478.682 212.552C478.298 213.48 478.106 214.496 478.106 215.6C478.106 216.704 478.298 217.728 478.682 218.672C479.082 219.6 479.634 220.416 480.338 221.12C481.058 221.824 481.898 222.376 482.858 222.776C483.818 223.16 484.858 223.352 485.978 223.352C486.986 223.352 487.93 223.2 488.81 222.896C489.706 222.576 490.53 222.048 491.282 221.312L491.786 221.84C491.05 222.592 490.178 223.16 489.17 223.544C488.162 223.912 487.09 224.096 485.954 224.096ZM496.103 224V207.2H501.935C503.327 207.2 504.519 207.424 505.511 207.872C506.519 208.32 507.287 208.96 507.815 209.792C508.343 210.608 508.607 211.6 508.607 212.768C508.607 213.936 508.343 214.936 507.815 215.768C507.287 216.6 506.519 217.24 505.511 217.688C504.519 218.136 503.327 218.36 501.935 218.36H496.559L496.919 217.976V224H496.103ZM507.911 224L503.543 217.904H504.479L508.871 224H507.911ZM496.919 217.976L496.559 217.616H501.983C503.871 217.616 505.311 217.192 506.303 216.344C507.311 215.496 507.815 214.304 507.815 212.768C507.815 211.232 507.311 210.048 506.303 209.216C505.311 208.368 503.871 207.944 501.983 207.944H496.559L496.919 207.56V217.976ZM513.33 224V207.2H514.146V224H513.33ZM520.291 224V207.2H520.963L528.883 220.952H528.523L536.395 207.2H537.067L537.091 224H536.299L536.275 208.4H536.539L528.907 221.672H528.475L520.795 208.4H521.083V224H520.291ZM543.236 224V207.2H544.052V224H543.236ZM550.197 224V207.2H550.869L563.205 223.04H562.797V207.2H563.613V224H562.941L550.605 208.16H551.013V224H550.197ZM566.863 224L574.639 207.2H575.431L583.207 224H582.319L574.855 207.752H575.215L567.751 224H566.863ZM569.551 219.08L569.863 218.384H580.135L580.447 219.08H569.551ZM586.478 224V207.2H587.294V223.256H597.134V224H586.478Z" fill="white"/>
<defs>
<linearGradient id="paint0_linear_162_70" x1="149.934" y1="67.5" x2="149.934" y2="232.057" gradientUnits="userSpaceOnUse">
<stop stop-color="#DBC99F"/>
<stop offset="1" stop-color="#9B7B4A"/>
</linearGradient>
</defs>
</svg>
